<svg id="_0526_email_campaign" xmlns="http://www.w3.org/2000/svg" xmlns:xlink="http://www.w3.org/1999/xlink" viewBox="0 0 500 500" data-imageid="email-campaign-19" imageName="Email Campaign" class="illustrations_image" style="width: 166px;"><defs><style>.cls-1_email-campaign-19{opacity:.1;}.cls-2_email-campaign-19{fill:url(#linear-gradient);}.cls-2_email-campaign-19,.cls-3_email-campaign-19,.cls-4_email-campaign-19,.cls-5_email-campaign-19,.cls-6_email-campaign-19,.cls-7_email-campaign-19,.cls-8_email-campaign-19,.cls-9_email-campaign-19,.cls-10_email-campaign-19,.cls-11_email-campaign-19,.cls-12_email-campaign-19,.cls-13_email-campaign-19,.cls-14_email-campaign-19{stroke-width:0px;}.cls-3_email-campaign-19{opacity:.18;}.cls-3_email-campaign-19,.cls-4_email-campaign-19,.cls-5_email-campaign-19,.cls-6_email-campaign-19,.cls-7_email-campaign-19{isolation:isolate;}.cls-3_email-campaign-19,.cls-13_email-campaign-19{fill:#68e1fd;}.cls-4_email-campaign-19{opacity:.14;}.cls-4_email-campaign-19,.cls-5_email-campaign-19,.cls-14_email-campaign-19{fill:#020202;}.cls-15_email-campaign-19{fill:none;stroke:#fff;stroke-linecap:round;stroke-miterlimit:10;stroke-width:2.65px;}.cls-5_email-campaign-19{opacity:.4;}.cls-6_email-campaign-19,.cls-7_email-campaign-19{opacity:.33;}.cls-6_email-campaign-19,.cls-11_email-campaign-19{fill:#fff;}.cls-7_email-campaign-19,.cls-10_email-campaign-19{fill:#d7d9e1;}.cls-8_email-campaign-19{fill:url(#linear-gradient-2-email-campaign-19);}.cls-9_email-campaign-19{fill:#231f20;}.cls-12_email-campaign-19{fill:#fca89e;}</style><linearGradient id="linear-gradient-email-campaign-19" x1="415.55" y1="3080.45" x2="489.98" y2="3048.75" gradientTransform="translate(-305.61 3281.06) rotate(4.52) scale(1 -1)" gradientUnits="userSpaceOnUse"><stop offset="0" stop-color="#231f20"/><stop offset=".08" stop-color="#231f20" stop-opacity=".69"/><stop offset=".21" stop-color="#231f20" stop-opacity=".32"/><stop offset="1" stop-color="#231f20" stop-opacity="0"/></linearGradient><linearGradient id="linear-gradient-2-email-campaign-19" x1="391.71" y1="3071.02" x2="386.72" y2="3028.81" gradientTransform="translate(-64.59 3324.34) scale(1 -1)" xlink:href="#linear-gradient-email-campaign-19"/></defs><g id="background_email-campaign-19"><path class="cls-3_email-campaign-19 targetColor" d="M273.64,66.08c-5.67,1.02-11.26,2.42-16.74,4.21-36.3,11.84-105.27,30.18-132.17,57.19-31.19,31.39-21.62,72.7-52.95,103.9-25.95,25.82-47.6,51.09-47.53,90.26.11,69.02,59.73,93,115.47,110.39,66.05,20.57,136.29,30.04,205.16,20.64,29.2-3.98,58.68-11.64,82.5-28.96,35.64-25.88,52.77-73.4,45.37-116.38-3.76-21.81-10.33-41.52-12.12-63.92-2.34-29.2,2.59-59.17-5.99-87.72-14.93-49.73-67.19-79.64-118.31-88.69-20.68-3.69-42.1-4.66-62.7-.92Z" style="fill: rgb(44, 44, 42);"/></g><g id="screen_email-campaign-19"><path class="cls-11_email-campaign-19" d="M437.71,116.51v259.09c0,9.05-7.33,16.38-16.38,16.38H77.39c-9.05,0-16.38-7.33-16.38-16.38V121.36c0-9.05,7.33-16.38,16.38-16.38h348.79c6.37,0,11.53,5.16,11.53,11.53h0Z"/><rect class="cls-7_email-campaign-19" x="121.64" y="161.19" width="164.41" height="101.05"/><rect class="cls-7_email-campaign-19" x="121.64" y="271.93" width="164.41" height="101.05"/><path class="cls-13_email-campaign-19 targetColor" d="M437.71,116.77v.42H61.01v-.42c0-9.05,7.33-16.38,16.38-16.38h343.94c9.04,0,16.37,7.31,16.38,16.35v.03Z" style="fill: rgb(44, 44, 42);"/><path class="cls-10_email-campaign-19" d="M111.83,117.19v274.75h-34.44c-9.05,0-16.38-7.33-16.38-16.38V117.19h50.82Z"/><rect class="cls-11_email-campaign-19" x="77.46" y="186.38" width="26.53" height="2.63"/><rect class="cls-11_email-campaign-19" x="71.3" y="178.62" width="32.7" height="3.33"/><rect class="cls-11_email-campaign-19" x="77.46" y="217.44" width="26.53" height="2.63"/><rect class="cls-11_email-campaign-19" x="71.3" y="209.66" width="32.7" height="3.33"/><rect class="cls-11_email-campaign-19" x="77.46" y="248.49" width="26.53" height="2.63"/><rect class="cls-11_email-campaign-19" x="71.3" y="240.72" width="32.7" height="3.33"/><rect class="cls-11_email-campaign-19" x="77.46" y="279.53" width="26.53" height="2.63"/><rect class="cls-11_email-campaign-19" x="71.3" y="271.77" width="32.7" height="3.33"/><circle class="cls-11_email-campaign-19" cx="78.55" cy="108.76" r="3.74"/><circle class="cls-11_email-campaign-19" cx="91.38" cy="108.76" r="3.74"/><circle class="cls-11_email-campaign-19" cx="104.22" cy="108.76" r="3.74"/></g><g id="world_email-campaign-19"><path class="cls-13_email-campaign-19 targetColor" d="M376.71,375.73c0,29.63-24.02,53.65-53.65,53.65s-53.65-24.02-53.65-53.65c0-1.38.05-2.75.16-4.1,2.28-29.54,28.08-51.64,57.62-49.36,27.93,2.16,49.5,25.44,49.52,53.46Z" style="fill: rgb(44, 44, 42);"/><path class="cls-4_email-campaign-19" d="M300.51,400.1c-1.78,7.75.4,16.02-1.19,23.75-12.39-6.13-21.95-16.8-26.69-29.78-.26-2.65-.19-5.33.2-7.96.36-2.85.89-5.81.08-8.57-.77-2.13-1.9-4.11-3.33-5.85,1.21-15.88,9.42-30.4,22.4-39.62.07.36.07.73,0,1.09l-2.24,10.22c.45,3.03.45,6.1,0,9.13-.5,3.06-2.32,5.74-4.98,7.33-.99.41-1.95.88-2.88,1.42-.89.74-1.63,1.64-2.19,2.65-1.48,2.07-2.59,4.38-3.27,6.84-.67,2.49-.03,5.16,1.7,7.07l14.96-2.91c1.57-.31,3.46-.52,4.54.66,1.33,1.41.48,3.65.76,5.55.36,2.42,2.51,4.15,3.5,6.4,1.73,3.89-.38,8.36-1.37,12.6Z"/><path class="cls-4_email-campaign-19" d="M376.71,375.73c.02,16.44-7.52,31.98-20.44,42.14-.74-.49-1.37-1.12-1.86-1.86-1.61-2.43-1.08-6.26,1.51-7.63-.9.48-4.45-.69-5.51-.85l-5.52-.86c-2.65-.41-7.25-.24-8.8-2.89-.18-.37-.39-.73-.62-1.06-.33-.33-.72-.59-1.14-.78-1.66-.81-3.61-1.73-3.98-3.53-.28-1.33.38-2.84-.29-3.98-.21-.37-.54-.66-.76-1.02-.48-1.11-.33-2.38.37-3.36,2.32-4.07,7.15-6.04,11.77-6.82s9.41-.68,13.92-1.98c2.84-.82,5.53-2.2,8.47-2.65,1.62-.23,3.64-.38,4.23-1.91.33-.86,0-1.86.35-2.73.13-.37.38-.69.52-1.06.38-1.16-.25-2.4-1.4-2.78-.15-.05-.3-.08-.45-.1.37-1.01.69-2.3-.11-3.01-.56-.41-1.29-.53-1.95-.31-1.92.49-3.32,2.11-4.94,3.25-5.31,3.81-12.69,2.46-17.18-2.02-.73-.64-1.24-1.48-1.49-2.42-.14-1.63.77-3.18,2.27-3.85,1.47-.63,3.05-.94,4.65-.92l-1.79-11.68c-8.92,2.39-12.54-6.11-13.82-13.17-1.27-7.06,3.74-9.58,10.21-10.05,20.41,8.14,33.8,27.91,33.78,49.89Z"/></g><g id="character_email-campaign-19"><path class="cls-5_email-campaign-19" d="M280.65,348.18c.69,1.5,1.8,2.78,3.19,3.68,6.27,4.71,13.85,7.36,21.69,7.59-2.54.62-5.22,1.33-7.02,3.23s-2.19,5.31-.09,6.92c.74.49,1.58.82,2.46.94,4,.78,8.13.45,11.95-.97,2.31-.86,4.58-2.14,7.05-2.11,1.98.16,3.9.71,5.67,1.62,2.65,1.09,5.43,2.07,8.19,1.51s5.31-3.21,4.69-5.97c-.15-.65-.42-1.33-.11-1.92.27-.36.65-.62,1.08-.74l25.39-11.3c1.61-.73,3.45-1.75,3.62-3.5s-1.61-3.25-3.25-4.1c-8.75-4.57-18.95-5.15-28.82-5.63l-17.51-.86c-8.47-.41-17.02-.82-25.47.17-2.93.35-8.11.38-10.35,2.57-1.95,1.86-3.24,6.48-2.34,8.88Z"/><rect class="cls-13_email-campaign-19 targetColor" x="342.73" y="255.47" width="4.06" height="11.07" rx="1.41" ry="1.41" transform="translate(-19.5 27.98) rotate(-4.52)" style="fill: rgb(44, 44, 42);"/><path class="cls-13_email-campaign-19 targetColor" d="M336.23,252.15l.57,3.17c.19,1.02.93,1.7,1.73,1.57,3.08-.53,10.62-1.58,16.05-.2,2.95.75,5.83,1.74,8.63,2.95,1.1.49,2.2-.74,2.02-2.26l-1.95-16.88c-.19-1.49-1.49-2.23-2.43-1.33-3.89,3.53-12.9,10.55-23,10.51-1.11-.04-1.83,1.18-1.61,2.47Z" style="fill: rgb(44, 44, 42);"/><ellipse class="cls-13_email-campaign-19 targetColor" cx="363.2" cy="249.1" rx="5.1" ry="10.66" transform="translate(-18.5 29.4) rotate(-4.52)" style="fill: rgb(44, 44, 42);"/><ellipse class="cls-2_email-campaign-19" cx="363.2" cy="249.1" rx="5.1" ry="10.66" transform="translate(-18.5 29.4) rotate(-4.52)"/><path class="cls-13_email-campaign-19 targetColor" d="M303.28,271.86c-6.26.89-21.24,36.08-16.78,44.13,4.46,8.06,29.08,17.45,29.08,17.45l-1.33-13.87s-16.84-7.17-15.5-11.64,11.03-21.17,11.03-21.17l-6.5-14.91Z" style="fill: rgb(44, 44, 42);"/><path class="cls-13_email-campaign-19 targetColor" d="M343.35,270.9c0-.88,5.83,1.58,6.09,1.73,3.35,1.85,6.52,3.99,9.48,6.41,2.65,2.12,5.43,4.19,7.96,6.54,2.3,2.18,5.4,4.86,4.84,8.39-.44,2.65-3.32,4.41-6.03,4.42-2.71-.21-5.33-1.12-7.58-2.65-4.73-2.72-9.2-5.65-13.79-8.64l-.98-16.19Z" style="fill: rgb(44, 44, 42);"/><path class="cls-13_email-campaign-19 targetColor" d="M307.15,270.84h34.4c4.95-.1,9.05,3.83,9.16,8.78,0,.1,0,.21,0,.31,0,0-6.56,26.78-6.64,35.77,0,4.92,1.55,19.63,1.55,19.63h-42.47s1.96-15.37,1.92-20.53c-.08-8.76-7.02-34.87-7.02-34.87-.07-4.95,3.9-9.03,8.85-9.09.08,0,.16,0,.24,0Z" style="fill: rgb(44, 44, 42);"/><path class="cls-12_email-campaign-19" d="M348.88,255.64c-.58-.82-1.37-1.47-2.28-1.9-.87-.26-1.79-.26-2.65,0-2.38.56-4.39,2.14-5.48,4.33-.23.44-.35.93-.36,1.43.04.5.17.98.38,1.43.82,2.08,1.91,4.42,4.07,5.03,1.15.14,2.3.23,3.45.25.76.12,1.47.41,2.23.54,1.91.35,5.75-.96,5.89-3.36.07-1.18-1.45-2.76-2.08-3.68-1.04-1.42-2.06-2.77-3.17-4.09Z"/><path class="cls-12_email-campaign-19" d="M329.64,275.87c-.3,2.09-2.17,3.59-4.27,3.41-4.22-.2-4.53-3.41-4.53-3.41v-16.75h8.8v16.75Z"/><path class="cls-8_email-campaign-19" d="M320.79,267.4s5.51,8.59,8.8,4.46v-6.72l-8.8,2.26Z"/><path class="cls-12_email-campaign-19" d="M317.14,263.13c2.2,6.84,13.15,7.03,16.83,1.61,1.97-3.3,2.58-7.23,1.73-10.98-.58-3.69-1.71-7.26-3.34-10.62-1.13-2.11-2.27-3.98-4.83-4.3-2.92-.19-5.84.46-8.4,1.88-5,2.7-7.41,8.55-5.76,13.99.44,1.32,1,2.6,1.66,3.82.83,1.47,1.54,3.01,2.12,4.59Z"/><rect class="cls-13_email-campaign-19 targetColor" x="295.54" y="304.63" width="57.63" height="34.36" style="fill: rgb(44, 44, 42);"/><g class="cls-1_email-campaign-19"><rect class="cls-14_email-campaign-19" x="295.54" y="304.63" width="57.63" height="34.36"/></g><path class="cls-9_email-campaign-19" d="M320.5,357.32c-1.2.95-2.55,1.7-3.98,2.23-3.09,1.33-9.2,3.72-8.28,6.37,1.23,3.58,5.53,3.32,8.39,2.47,4.46-1.53,8.7-3.62,12.62-6.22l-8.75-4.84Z"/><path class="cls-9_email-campaign-19" d="M327.89,347.98c10.46-7.63,15.93-13.27,27.67-20.41,2.8-1.7,4.71-2.2,9.56-.31,4.13,1.62,3.69,8.72,1.43,11.68-6.76,8.88-32.8,21.14-38.07,23-2.26.8-10.29-5.96-7.03-9.18,2.04-1.73,4.19-3.33,6.44-4.78Z"/><path class="cls-9_email-campaign-19" d="M323.06,362.69c1.62,2.09,3.48,3.99,5.52,5.67,3.54,2.75,6,3.65,8.88,2.31,4.17-1.94.33-6.04-2.91-9.29-2.47-2.58-5.24-4.86-8.24-6.8l-3.25,8.11Z"/><path class="cls-12_email-campaign-19" d="M323.59,352.65l4.47,3.7c.92.75,1.71,1.64,2.34,2.65,1.45,2.65-3.57,8.24-6.84,4.99s-6.19-6.73-6.19-6.73l6.21-4.62Z"/><path class="cls-9_email-campaign-19" d="M310.29,358.48c-12.16-6.12-19.62-8.32-27.44-19.33-1.99-2.81-2.79-7.45-2.02-9.74.96-2.81,5.07-4.51,9.93-3.36,4.06.98,31.38,22.38,35.65,26.41,1.83,1.74-3.77,10.43-8.36,8.93-2.67-.74-5.27-1.71-7.76-2.92Z"/><path class="cls-9_email-campaign-19" d="M335.3,242.49c-.47,1.14-1.17,2.16-2.04,3.03-1.78,1.72-4.07,2.84-6.53,3.17-3.58.57-7.22,0-10.83-.36-.17,1.19-1,2.18-2.14,2.55.55,2.52,1.27,5,2.18,7.42.89,2.36,2.16,4.57,3.12,6.88-2.97-2.06-5.31-5.56-7.43-8.4-1.15-1.35-2.08-2.88-2.73-4.53-.67-1.67-.48-3.57.49-5.08.5-.5.9-1.08,1.19-1.73.1-.56.1-1.13,0-1.69-.09-2.68,1.04-5.26,3.08-7.01,2.04-1.7,4.42-2.93,6.99-3.6,2.2-.77,4.55-1.03,6.86-.74,3.34.57,7.35,4.26,8.06,7.59.15.84.06,1.71-.27,2.5Z"/><path class="cls-12_email-campaign-19" d="M314.78,258.64c-.78.14-1.47.58-1.92,1.23-.25.51-.28,1.1-.09,1.63.19.53.47,1.03.84,1.46.18.26.41.49.68.68.45.25.95.38,1.46.37h1.19c.2-.01.4-.07.58-.16.19-.14.33-.34.4-.56.27-.83.27-1.73,0-2.56-.18-.78-.56-1.51-1.1-2.11-.52-.49-1.33-.21-2.03.01Z"/><path class="cls-13_email-campaign-19 targetColor" d="M359.18,291.83c.77,1.82,1.94,3.45,3.42,4.75,2.94,2.19,7.1,1.59,9.29-1.35,1.05-1.41,1.5-3.18,1.25-4.92-.44-1.91-1.3-3.7-2.51-5.24-5.2-7.7-10.55-15.31-16.05-22.83-1.46.84-6.64,2.73-6.99,4.39s2.76,6.64,3.53,8.34c1.33,2.87,2.65,5.73,3.98,8.57s3.23,5.47,4.07,8.28Z" style="fill: rgb(44, 44, 42);"/><rect class="cls-13_email-campaign-19 targetColor" x="341.91" y="262.86" width="4.62" height="4.62" rx="1.42" ry="1.42" transform="translate(-66.1 122.21) rotate(-18.4)" style="fill: rgb(44, 44, 42);"/></g><g id="bubblr_email-campaign-19"><path class="cls-13_email-campaign-19 targetColor" d="M459.96,147.81v54.86c0,7.91-6.21,14.42-14.11,14.8-.23.01-.47.01-.7,0h-90.72l-7.8,18.13-8.23-18.13h-124.95c-6.59,0-12.39-4.36-14.23-10.7-.37-1.33-.55-2.72-.53-4.1v-54.86c0-8.16,6.6-14.79,14.76-14.83h231.7c8.18,0,14.81,6.63,14.81,14.81h0Z" style="fill: rgb(44, 44, 42);"/><path class="cls-6_email-campaign-19" d="M459.96,153.36v49.31c0,7.91-6.21,14.42-14.11,14.8-.23.01-.47.01-.7,0h-90.72l-7.8,18.13-8.23-18.13h-124.95c-6.59,0-12.39-4.36-14.23-10.7-.37-1.33-.55-2.72-.53-4.1v-49.31h261.28Z"/><line class="cls-15_email-campaign-19" x1="207.78" y1="141.52" x2="214.02" y2="147.74"/><line class="cls-15_email-campaign-19" x1="214.39" y1="141.52" x2="208.16" y2="147.74"/><path class="cls-11_email-campaign-19" d="M226.59,172.03h138.48c1.82,0,3.29,1.47,3.29,3.29h0c0,1.82-1.47,3.29-3.29,3.29h-138.48c-1.82,0-3.29-1.47-3.29-3.29h0c0-1.82,1.47-3.29,3.29-3.29Z"/><path class="cls-11_email-campaign-19" d="M226.59,188.45h138.48c1.82,0,3.29,1.47,3.29,3.29h0c0,1.82-1.47,3.29-3.29,3.29h-138.48c-1.82,0-3.29-1.47-3.29-3.29h0c0-1.82,1.47-3.29,3.29-3.29Z"/></g></svg>